<?xml version="1.0" standalone="no"?>
<!DOCTYPE svg PUBLIC "-//W3C//DTD SVG 20010904//EN"
 "http://www.w3.org/TR/2001/REC-SVG-20010904/DTD/svg10.dtd">
<svg version="1.0" xmlns="http://www.w3.org/2000/svg"
 width="512.000000pt" height="512.000000pt" viewBox="0 0 512.000000 512.000000"
 preserveAspectRatio="xMidYMid meet">

<g transform="translate(0.000000,512.000000) scale(0.100000,-0.100000)"
fill="#000000" stroke="none">
<path d="M4675 4972 c-52 -35 -1584 -1576 -1595 -1605 -5 -16 -10 -94 -10
-175 0 -234 18 -252 252 -252 81 0 159 5 175 10 32 12 1586 1560 1609 1602 18
34 18 72 0 106 -8 15 -82 94 -164 176 -140 139 -152 148 -193 153 -32 3 -52
-1 -74 -15z"/>
<path d="M533 4469 c-226 -38 -418 -202 -501 -431 l-27 -73 0 -1270 0 -1270
23 -75 c54 -175 183 -321 349 -397 126 -58 107 -56 786 -60 l627 -4 0 -325 c0
-353 2 -371 55 -412 20 -16 42 -22 76 -22 47 0 52 4 555 380 l508 380 622 0
c391 0 651 4 700 11 210 29 387 153 484 339 74 143 70 62 70 1450 l0 1245
-597 -596 c-522 -520 -605 -599 -653 -620 -53 -23 -64 -24 -285 -24 l-230 0
-60 29 c-76 38 -143 105 -181 181 l-29 60 0 235 0 235 32 60 c26 49 116 144
487 515 251 250 456 458 456 462 0 11 -3203 8 -3267 -3z m1733 -801 c43 -47
47 -106 11 -159 -41 -61 -32 -60 -761 -57 -630 3 -662 4 -689 22 -78 53 -74
167 6 217 31 19 51 19 715 17 l684 -3 34 -37z m-26 -744 c56 -34 77 -112 45
-174 -32 -62 -8 -60 -750 -60 -750 0 -714 -3 -751 65 -32 60 -1 150 61 175 11
5 323 9 693 9 607 1 677 -1 702 -15z m1797 -774 c41 -25 56 -54 55 -107 0 -50
-29 -95 -69 -112 -21 -8 -438 -11 -1605 -9 l-1578 3 -31 31 c-58 58 -48 155
19 197 25 15 146 16 1602 17 1542 0 1576 0 1607 -20z"/>
</g>
</svg>
