<?xml version="1.0" standalone="no"?>
<!DOCTYPE svg PUBLIC "-//W3C//DTD SVG 20010904//EN"
 "http://www.w3.org/TR/2001/REC-SVG-20010904/DTD/svg10.dtd">
<svg version="1.0" xmlns="http://www.w3.org/2000/svg"
 width="512.000000pt" height="512.000000pt" viewBox="0 0 512.000000 512.000000"
 preserveAspectRatio="xMidYMid meet">

<g transform="translate(0.000000,512.000000) scale(0.100000,-0.100000)"
fill="#000000" stroke="none">
<path d="M2247 4794 c-173 -31 -329 -114 -458 -243 -132 -133 -201 -256 -246
-439 -25 -101 -22 -284 6 -397 97 -398 450 -675 861 -675 244 0 443 83 621
260 179 178 261 375 261 625 0 299 -144 568 -392 734 -193 129 -423 177 -653
135z m349 -94 c318 -80 553 -337 604 -660 45 -287 -86 -594 -326 -766 -141
-101 -287 -146 -469 -146 -173 0 -308 42 -455 142 -72 49 -177 160 -224 238
-107 177 -143 420 -91 617 60 229 234 434 451 530 148 66 355 84 510 45z"/>
<path d="M875 2593 c-89 -19 -212 -77 -292 -137 -110 -83 -197 -214 -244 -366
-33 -106 -33 -274 0 -379 83 -270 344 -632 620 -862 537 -449 1220 -621 1911
-483 131 26 170 43 170 72 0 10 -15 47 -34 82 -46 87 -91 220 -112 327 -25
127 -26 490 -1 587 40 160 112 282 233 400 71 68 74 74 99 159 61 211 180 370
375 503 79 53 91 71 65 98 -15 15 -134 16 -1368 15 -1159 -1 -1362 -3 -1422
-16z"/>
<path d="M3910 2168 c-68 -26 -125 -65 -172 -116 -84 -93 -118 -193 -118 -349
0 -75 -3 -93 -15 -93 -8 0 -40 -10 -72 -22 -80 -29 -172 -121 -201 -201 -20
-51 -22 -78 -22 -238 0 -209 13 -282 70 -404 95 -204 271 -351 490 -412 101
-27 292 -25 390 6 136 42 225 96 326 196 77 76 98 105 137 185 73 149 82 193
82 425 0 195 -1 201 -26 256 -15 31 -43 74 -63 96 -40 45 -132 98 -188 108
l-38 7 0 108 c0 135 -22 214 -84 297 -50 69 -143 135 -219 158 -75 22 -209 19
-277 -7z m273 -84 c61 -21 151 -102 182 -165 29 -56 47 -162 43 -245 l-3 -59
-349 -3 -348 -2 4 117 c3 101 7 126 29 173 80 173 259 247 442 184z m389 -587
c64 -31 110 -83 133 -147 20 -58 20 -338 0 -434 -51 -241 -257 -447 -501 -501
-103 -23 -263 -17 -354 14 -202 69 -360 230 -426 436 -22 67 -27 105 -31 235
-8 228 14 301 112 376 67 51 93 53 570 51 l440 -2 57 -28z"/>
</g>
</svg>
