<svg xmlns="http://www.w3.org/2000/svg" width="682.667" height="682.667" viewBox="0 0 512 512"><path d="M335.7 44.4c-2.1.8-4.8 2.2-5.9 3.3-2.3 2-5.8 8.5-5.8 10.6 0 1-3.1 2.4-8.6 4.1-4.7 1.5-12.3 4.7-17 7.1l-8.5 4.4-3.6-2.2c-4.3-2.5-11.5-2.7-15.9-.4-4 2.1-20.1 18.7-21.4 22.1-1.5 4-1.2 11.1.6 14.9 1.6 3.3 1.5 3.5-2.9 13.8-2.5 5.7-5.4 13.4-6.6 17-2 6-2.5 6.7-5.3 7.3-4.1.8-9.4 4.9-11.5 8.9-2.1 4.1-3.1 24.2-1.4 30.4 1.9 6.9 8.6 13.3 14 13.3 1.5 0 2.4 1.4 4.1 6.7 1.2 3.8 4.2 11.6 6.7 17.5 4.3 10.3 4.4 10.8 2.9 13.7-2 3.7-2.1 11.1-.2 15.4.7 1.8 5.6 7.3 10.7 12.3 7.3 7.1 10.4 9.5 13.7 10.4 4.8 1.2 9.2.6 13.4-1.8 2.6-1.5 3.1-1.4 13.5 3.6 5.9 2.8 13.6 5.8 17 6.8 5.7 1.6 6.2 1.9 6.8 5 .8 4.4 5 9.3 10 11.5 6.2 2.8 27.2 2.7 33.2-.2 4.8-2.3 7.7-5.8 9-10.9.9-3.3 1.4-3.7 11.1-7.1 5.7-2 13.3-5 17.1-6.8l6.8-3.1 4.4 2c8.8 3.9 13.6 2.3 25-8.7 10.5-10.2 13.4-15.3 12.5-22.1-.3-2.5-1.3-5.6-2.1-6.9-1.5-2.2-1.3-2.9 2.1-10.4 2-4.5 5-12.2 6.8-17.2 2.9-8.6 3.3-9.1 6.6-10 5.1-1.3 8.6-4.2 10.9-9 1.8-3.7 2.1-6.2 2.1-17.2s-.3-13.5-2.1-17.1c-2.1-4.4-6.6-8-11.7-9.3-2.4-.7-3.2-2-6.8-12.2-2.2-6.3-5.3-13.8-6.8-16.7l-2.7-5.3 2-4.3c4.5-9.1 2.6-13.9-10.5-26.7-7.4-7.3-10.9-10-13.9-10.8-4.2-1.1-9.2-.4-13.4 1.8-2 1.1-3.2.9-9.3-1.9-3.8-1.8-11.1-4.7-16.2-6.4-11.4-4-11.2-3.9-11.9-7.5-.9-4.3-6.9-10.5-11.5-11.9-5.4-1.6-24.7-1.5-29.5.2m35.5 59.5c31.3 9.2 50.9 35.6 51.1 69.1.1 16.7-5 31.2-15.4 44.2-21.8 27.3-58.7 35-90 18.7-24.3-12.7-39.2-38.8-37.6-66.3 1.1-20.2 7.3-34.3 20.6-47.6 11.2-11.1 20.7-16.2 36.1-19.6 8.8-1.8 26.3-1.1 35.2 1.5"/><path d="M48.2 94.9c-6.5 2.3-10.7 6.1-13.8 12.6l-2.4 5v124.6c0 138.2-.4 130.1 6.6 137.3 1.9 2 4.9 4.4 6.7 5.3 3 1.7 14.4 1.8 199.3 1.8h196.1l4.9-3c3-1.9 6-4.9 7.9-7.9l3-4.9.3-47 .3-47-7.5 7.1c-12.1 11.4-20.9 14.7-32.9 12.2-5.7-1.1-5.9-1.1-15.9 3.2-8.1 3.5-10.5 5-12.3 7.8-3.1 5-10 10.9-15.4 13.3-6.4 2.9-32 3.7-40.4 1.3-7.5-2.2-14.6-7.2-18.5-13.1-3-4.5-4.3-5.4-12.5-8.9-5.1-2.1-10.7-3.8-12.4-3.8-19.1.7-18.6.7-24.8-2.1-8.9-4.2-27.3-22.9-30.3-31-2.4-6.3-3-17.5-1.2-22.2.8-2.1.5-3.6-1.9-8.3-1.5-3.1-3.6-7.8-4.5-10.3-1.2-3.2-2.7-5-5.2-6.4-4.9-2.6-10.2-8.7-13.3-15.4-2.4-5.3-2.6-6.4-2.6-21.6 0-10.1.5-17.5 1.3-20.2 1.9-6.2 7.2-13.4 13-17.3 4.1-2.8 5.5-4.6 7.3-9 1.2-3 3.3-7.6 4.6-10.2 1.9-3.9 2.1-5.2 1.2-7.5-.6-1.5-1.1-5.8-1.1-9.6V93h-89.1c-83.8.1-89.5.2-94.5 1.9m64.6 159.7c3.2 2.2 4.4 5.8 3.1 9.1-.5 1.5-5.8 7.6-11.7 13.5L93.6 288l10.6 10.8c5.8 5.9 11.1 11.7 11.7 12.9 1.5 3 .4 6.9-2.6 9.3-5.1 4-6.6 3.2-23.5-13.8C75.5 293 74 291.1 74 288s1.5-5 15.8-19.2c16.6-16.7 18.2-17.6 23-14.2m54 0c4.8 3.3 4.7 4.6-2.9 34.7-3.8 15.5-7.7 29.2-8.5 30.4-2.9 4.6-9.6 4-13-1.2-1.6-2.4-1.4-3.6 5.7-31.7 5.7-23 7.7-29.7 9.5-31.5 2.7-2.7 6-2.9 9.2-.7m55.4 14.2C236.4 283 238 284.9 238 288c0 3-1.6 5-15.2 18.7-8.4 8.5-16.3 15.6-17.6 16-5.2 1.3-11-4.4-9.7-9.4.4-1.6 5.4-7.5 11.8-14l11.1-11.3-11.1-11.3c-6.1-6.2-11.4-12.3-11.8-13.6-.9-2.9 1.1-7.6 3.8-8.9 5.3-2.6 6.5-1.8 22.9 14.6m-11.5 139.9c-.4 6-1 12.1-1.5 13.8l-.8 2.9-16.5 1.7c-40.1 4-71 11.4-92.2 22C90 454 88 456 88 460.5c0 4.3 2.9 7.5 6.9 7.5 1.6 0 6.9-2 11.8-4.4 19.5-9.8 47.3-16.4 86.3-20.8 18.3-2.1 89.5-1.7 108.3.5 36 4.3 62.1 10.8 81.3 20.2 9.9 4.9 13 5.4 16.5 2.6 2.9-2.3 3.1-8.1.5-11-2.9-3.2-19-10.5-32.9-15-20.6-6.5-47.6-11.4-77.2-13.9l-8.9-.7-.8-3.5c-.4-1.9-1.1-8.1-1.4-13.8l-.7-10.2h-66.4z"/></svg>