<?xml version="1.0" standalone="no"?>
<!DOCTYPE svg PUBLIC "-//W3C//DTD SVG 20010904//EN"
 "http://www.w3.org/TR/2001/REC-SVG-20010904/DTD/svg10.dtd">
<svg version="1.0" xmlns="http://www.w3.org/2000/svg"
 width="512.000000pt" height="512.000000pt" viewBox="0 0 512.000000 512.000000"
 preserveAspectRatio="xMidYMid meet">

<g transform="translate(0.000000,512.000000) scale(0.100000,-0.100000)"
fill="#000000" stroke="none">
<path d="M412 5100 c-97 -26 -173 -70 -248 -144 -75 -76 -119 -151 -144 -252
-20 -76 -20 -115 -20 -2144 0 -2029 0 -2068 20 -2144 25 -101 69 -176 144
-252 76 -75 151 -119 252 -144 76 -20 115 -20 2144 -20 2029 0 2068 0 2144 20
101 25 176 69 252 144 75 76 119 151 144 252 20 76 20 115 20 2144 0 2029 0
2068 -20 2144 -26 103 -69 177 -149 256 -79 77 -142 114 -247 140 -76 20 -117
20 -2148 19 -2010 0 -2073 -1 -2144 -19z m3523 -1132 c56 -44 55 -29 55 -774
l0 -687 -72 6 c-228 18 -434 182 -515 407 -25 69 -28 90 -31 261 l-4 187 -186
4 c-170 4 -194 7 -260 30 -239 86 -398 284 -426 531 l-6 57 709 0 708 0 28
-22z m-687 -680 c60 -42 57 1 60 -767 l3 -704 -65 7 c-235 24 -435 178 -523
403 -25 63 -27 83 -32 263 l-6 195 -195 6 c-111 3 -212 11 -235 18 -175 55
-341 212 -402 378 -26 72 -48 186 -39 208 5 14 86 15 708 13 636 -3 705 -5
726 -20z m-688 -683 c63 -33 60 10 60 -765 l0 -706 -62 7 c-89 9 -142 25 -223
67 -94 49 -208 163 -258 258 -56 108 -68 167 -74 360 l-6 172 -186 5 c-223 6
-280 20 -411 108 -145 97 -245 266 -266 447 l-7 62 702 0 c603 0 706 -2 731
-15z"/>
</g>
</svg>
