<?xml version="1.0" standalone="no"?>
<!DOCTYPE svg PUBLIC "-//W3C//DTD SVG 20010904//EN"
 "http://www.w3.org/TR/2001/REC-SVG-20010904/DTD/svg10.dtd">
<svg version="1.0" xmlns="http://www.w3.org/2000/svg"
 width="512.000000pt" height="512.000000pt" viewBox="0 0 512.000000 512.000000"
 preserveAspectRatio="xMidYMid meet">

<g transform="translate(0.000000,512.000000) scale(0.100000,-0.100000)"
fill="#000000" stroke="none">
<path d="M203 4852 c-100 -35 -171 -115 -193 -216 -8 -36 -10 -497 -8 -1586
l3 -1535 28 -57 c32 -64 80 -111 146 -142 l46 -21 2335 0 2335 0 46 21 c66 31
114 78 146 142 l28 57 0 1565 0 1565 -28 57 c-32 64 -80 111 -146 142 l-46 21
-2320 2 c-2207 2 -2323 2 -2372 -15z"/>
<path d="M1770 770 l0 -220 -420 0 c-402 0 -423 -1 -460 -20 -45 -23 -80 -80
-80 -130 0 -48 33 -103 78 -128 l40 -22 1631 0 c1616 0 1632 0 1671 20 45 23
80 80 80 130 0 50 -35 107 -80 130 -37 19 -58 20 -460 20 l-420 0 0 220 0 220
-790 0 -790 0 0 -220z"/>
</g>
</svg>
