<?xml version="1.0" standalone="no"?>
<!DOCTYPE svg PUBLIC "-//W3C//DTD SVG 20010904//EN"
 "http://www.w3.org/TR/2001/REC-SVG-20010904/DTD/svg10.dtd">
<svg version="1.0" xmlns="http://www.w3.org/2000/svg"
 width="512.000000pt" height="512.000000pt" viewBox="0 0 512.000000 512.000000"
 preserveAspectRatio="xMidYMid meet">

<g transform="translate(0.000000,512.000000) scale(0.100000,-0.100000)"
fill="#000000" stroke="none">
<path d="M2357 5111 c-37 -4 -71 -12 -76 -17 -5 -5 -30 -96 -56 -202 -26 -107
-53 -195 -59 -197 -106 -27 -277 -92 -374 -141 l-123 -62 -176 104 c-162 97
-177 104 -197 91 -51 -34 -198 -171 -269 -250 -127 -143 -126 -109 -4 -313
l105 -176 -58 -112 c-57 -110 -105 -229 -135 -337 l-16 -56 -82 -22 c-269 -69
-311 -82 -318 -93 -20 -32 -24 -488 -4 -538 4 -11 68 -31 200 -64 107 -26 198
-53 203 -59 5 -7 16 -41 26 -77 25 -94 89 -250 141 -341 l44 -79 -105 -175
c-119 -197 -116 -176 -33 -275 l50 -60 60 0 60 0 -7 128 c-4 70 -8 134 -8 142
-1 13 23 15 149 18 l150 3 38 60 c21 33 63 86 93 118 l54 59 -48 56 c-65 77
-147 209 -187 303 -152 351 -141 740 29 1080 123 245 328 449 574 572 96 49
259 100 369 116 688 104 1329 -360 1448 -1049 18 -103 20 -281 4 -392 -30
-220 -139 -463 -281 -630 l-48 -56 54 -59 c30 -32 72 -85 93 -118 l38 -60 150
-3 c126 -3 150 -5 149 -18 0 -8 -4 -72 -8 -142 l-7 -128 60 0 60 0 50 60 c83
99 86 78 -33 275 l-105 175 44 79 c52 91 116 247 141 341 10 36 21 70 26 76 4
6 96 33 203 60 131 33 197 54 201 64 10 27 17 332 9 433 -4 57 -12 103 -20
110 -7 7 -98 35 -203 61 l-191 48 -21 72 c-37 124 -71 208 -130 322 l-58 112
105 176 c122 203 122 168 -1 308 -69 80 -219 220 -272 255 -20 12 -35 5 -196
-91 l-176 -105 -123 63 c-98 49 -267 113 -375 141 -6 2 -33 92 -60 200 -45
180 -51 198 -74 207 -32 12 -374 19 -463 9z"/>
<path d="M2474 3881 c-307 -49 -533 -311 -534 -621 -1 -399 178 -716 459 -812
92 -32 230 -32 322 0 280 96 460 414 459 812 -1 247 -150 477 -371 573 -101
44 -235 63 -335 48z"/>
<path d="M2115 2301 c-167 -45 -268 -104 -397 -233 -54 -54 -98 -102 -98 -108
0 -7 303 -10 940 -10 517 0 940 4 940 8 0 5 -34 46 -76 91 -99 106 -221 187
-351 232 l-98 34 -395 2 c-359 2 -401 1 -465 -16z"/>
<path d="M102 1950 c-46 -28 -72 -76 -72 -133 0 -150 168 -222 273 -116 l39
39 152 0 152 0 59 -161 c32 -88 67 -172 77 -185 19 -24 20 -24 210 -24 l191 0
-7 38 c-3 20 -6 52 -6 70 l0 32 -143 0 -144 0 -62 168 c-34 92 -70 175 -78
185 -14 15 -38 17 -207 17 l-192 0 -33 36 c-19 20 -45 40 -58 45 -42 16 -116
10 -151 -11z"/>
<path d="M4864 1960 c-11 -4 -36 -24 -54 -44 l-34 -36 -192 0 c-169 0 -193 -2
-207 -17 -8 -10 -44 -93 -78 -185 l-62 -168 -144 0 -143 0 0 -32 c0 -18 -3
-50 -6 -70 l-7 -38 191 0 c190 0 191 0 210 24 10 13 45 97 77 185 l59 161 152
0 152 0 39 -39 c67 -67 155 -68 226 -2 38 36 41 42 44 102 5 74 -15 116 -69
149 -35 21 -114 26 -154 10z"/>
<path d="M1300 1773 c0 -51 71 -1238 76 -1271 l5 -32 1179 0 1179 0 5 33 c5
32 77 1232 76 1275 l0 22 -1260 0 -1260 0 0 -27z m1355 -441 c137 -67 163
-247 51 -350 -89 -82 -203 -82 -291 0 -91 83 -96 214 -11 306 59 65 169 85
251 44z"/>
<path d="M270 1219 c-61 -24 -100 -85 -100 -154 0 -146 171 -215 273 -110 l34
35 362 0 361 0 0 38 c0 20 -3 54 -6 75 l-7 37 -357 0 -358 0 -17 26 c-32 50
-126 76 -185 53z"/>
<path d="M4723 1211 c-23 -11 -49 -31 -58 -45 l-17 -26 -358 0 -357 0 -7 -37
c-3 -21 -6 -55 -6 -75 l0 -38 361 0 362 0 34 -35 c60 -62 149 -68 217 -14 95
75 68 235 -47 278 -41 16 -76 13 -124 -8z"/>
<path d="M783 736 c-11 -13 -46 -96 -79 -185 l-59 -161 -153 0 -153 0 -26 30
c-54 65 -135 79 -208 35 -49 -28 -75 -75 -75 -135 0 -88 55 -150 141 -158 60
-6 100 10 139 54 l29 34 188 0 c148 0 193 3 209 14 13 10 43 75 83 185 l63
171 169 0 169 0 0 70 0 70 -209 0 c-209 0 -210 0 -228 -24z"/>
<path d="M3900 690 l0 -70 169 0 169 0 61 -167 c34 -92 69 -176 78 -185 14
-16 37 -18 210 -18 l194 0 29 -34 c39 -44 79 -60 139 -54 87 8 141 70 141 160
0 88 -69 157 -158 158 -51 0 -91 -19 -125 -60 l-26 -30 -153 0 -153 0 -59 161
c-33 89 -68 172 -79 185 -18 24 -19 24 -228 24 l-209 0 0 -70z"/>
<path d="M1220 165 l0 -165 1340 0 1340 0 0 165 0 165 -1340 0 -1340 0 0 -165z"/>
</g>
</svg>
